<svg width="384" height="583" viewBox="0 0 384 583" fill="none" xmlns="http://www.w3.org/2000/svg">
    <g clip-path="url(#clip0_128_353)">
        <path fill-rule="evenodd" clip-rule="evenodd"
            d="M26.3293 299.861C21.7543 292.041 19.0488 235.304 18.8431 230.229L18.8401 230.155C18.8401 230.155 2.71101 221.989 0.11757 188.965C-2.47587 155.941 38.6859 107.414 39.703 107.818C47.5954 101.053 53.0913 92.1055 58.1678 83.8405C67.9085 67.9818 76.1054 54.6366 96.7266 64.0476C106.502 68.5091 113.024 60.527 120.514 51.3588C130.359 39.3078 141.878 25.2076 164.664 34.6258C187.131 1.45939 250.041 -6.82315 250.469 7.78458C295.535 13.5079 311.86 26.9285 317.336 77.8616C358.624 87.7471 373.436 110.43 374.575 154.729C390.006 192.308 385.451 208.501 360.666 231.225C362.071 262.802 360.934 269.806 353.712 298.257C373.17 302.152 367.437 314.109 363.842 337.841C361.506 348.08 347.8 368.285 333.786 371.922C320.04 447.027 307.468 473.602 279.891 518.116C251.04 568.21 232.518 581.557 195.905 582.309C152.91 581.807 132.325 568.253 101.756 521.326C66.5648 459.034 54.3936 429.795 46.3976 371.614C32.7724 367.495 19.7128 347.813 17.4385 337.841C14.7172 319.881 16.8952 306.791 26.5498 299.798L26.3293 299.861ZM46.5462 326.043L47.1877 326.231L47.1921 326.073L46.5462 326.043Z"
            fill="#FFBD3E" />
        <path fill-rule="evenodd" clip-rule="evenodd"
            d="M48.959 298.069C30.2815 301.501 25.5096 315.781 28.9034 338.18C31.3729 349.007 47.4683 365.786 62.1666 366.062L57.2155 327.508L49.8319 325.336L48.959 298.069ZM332.1 298.069C350.777 301.501 355.549 315.781 352.155 338.18C349.686 349.007 333.59 365.786 318.892 366.062L323.843 327.508L331.227 325.336L332.1 298.069Z"
            fill="#EBC7AD" />
        <path
            d="M52.342 134.237L318.88 112.811L316.855 365.478L245.767 517.969L138.017 535.998L62.7396 348.01L52.342 134.237Z"
            fill="#EBC7AD" />
        <path fill-rule="evenodd" clip-rule="evenodd"
            d="M30.2141 228.428C30.4061 233.163 32.9308 295.441 37.2 302.738L47.6831 299.743L46.1856 326.699L56.6685 327.198L55.6701 363.14C63.1292 418.588 74.3672 450.602 107.586 509.402C136.112 553.192 155.321 565.841 195.443 566.309C229.609 565.607 246.892 553.152 273.815 506.407C299.632 464.733 311.356 435.212 324.233 364.637L325.231 327.698L333.218 328.696L332.719 297.746L342.703 301.241C349.442 274.692 350.503 258.824 349.192 229.358C372.321 208.152 376.571 193.041 362.171 157.974C361.109 116.636 347.286 104.8 308.758 95.5754C303.648 48.0464 288.414 35.5227 246.36 30.1819C245.96 16.5505 187.255 24.2794 166.289 55.2292C145.026 46.4404 134.277 59.5983 125.09 70.8439C118.1 79.3993 112.015 86.848 102.892 82.6847C83.6494 73.9026 76.0004 86.3559 66.9106 101.155C62.1734 108.867 57.0448 117.217 49.6799 123.53C48.7307 123.153 10.32 159.104 12.7401 189.922C15.1602 220.739 30.2114 228.359 30.2114 228.359L30.2141 228.428ZM129.182 415.468C133.703 432.259 138.159 443.229 149.727 465.851C160.977 422.805 219.676 422.316 230.438 464.384C238.53 449.067 242.632 439.123 248.048 415.468L251.472 401.282L128.692 400.793L129.182 415.468ZM111.08 409.065C86.9552 387.002 76.3581 374.084 70.1465 348.663L70.1467 241.338L83.6247 227.361C122.331 230.068 138.678 223.957 149.517 186.926L150.017 131.017C175.734 177.426 192.329 190.328 229.387 168.456C233.451 208.469 245.338 217.878 284.298 210.887L287.293 217.377C287.847 238.123 293.974 244.023 312.253 247.328L312.752 352.157C299.109 379.236 289.499 391.177 270.321 409.065C274.314 364.138 241.867 354.154 190.95 388.598C148.02 359.146 104.091 359.146 111.08 409.065Z"
            fill="#262931" />
        <path
            d="M156.207 408.647C186.349 416.454 193.852 417.439 223.314 409.169L227.65 419.89C197.475 431.95 180.796 430.789 151.315 419.89L156.207 408.647Z"
            fill="#262931" />
        <path
            d="M109.568 252.357L91.8449 270.879C90.5633 272.219 91.6356 274.43 93.4807 274.253L163.348 267.556C164.183 267.476 164.879 266.884 165.092 266.073L168.245 254.061C168.578 252.79 167.617 251.549 166.304 251.553L111.007 251.74C110.463 251.742 109.944 251.965 109.568 252.357Z"
            fill="#262931" />
        <path
            d="M274.462 252.357L292.186 270.879C293.467 272.219 292.395 274.43 290.55 274.253L220.683 267.556C219.848 267.476 219.152 266.884 218.939 266.073L215.786 254.061C215.452 252.79 216.414 251.549 217.727 251.553L273.024 251.74C273.568 251.742 274.087 251.965 274.462 252.357Z"
            fill="#262931" />
        <rect x="178.631" y="257.896" width="16.2749" height="117.696" rx="4" fill="#C29270" />
        <circle cx="248.704" cy="310.147" r="19.3667" fill="#262931" />
        <circle cx="130.223" cy="310.147" r="19.3667" fill="#262931" />
    </g>
    <defs>
        <clipPath id="clip0_128_353">
            <rect width="384" height="583" fill="white" />
        </clipPath>
    </defs>
</svg>