<svg width="32" height="32" viewBox="0 0 32 32" fill="none" xmlns="http://www.w3.org/2000/svg">
<path d="M13 23.0268C8 24.5268 8 20.5268 6 20.0268M20 26.0268V22.1568C20.0375 21.68 19.9731 21.2006 19.811 20.7506C19.6489 20.3006 19.3929 19.8902 19.06 19.5468C22.2 19.1968 25.5 18.0068 25.5 12.5468C25.4997 11.1506 24.9627 9.80799 24 8.79679C24.4559 7.5753 24.4236 6.22514 23.91 5.02679C23.91 5.02679 22.73 4.67679 20 6.50679C17.708 5.88561 15.292 5.88561 13 6.50679C10.27 4.67679 9.09 5.02679 9.09 5.02679C8.57638 6.22514 8.54414 7.5753 9 8.79679C8.03013 9.81549 7.49252 11.1703 7.5 12.5768C7.5 17.9968 10.8 19.1868 13.94 19.5768C13.611 19.9168 13.3573 20.3222 13.1953 20.7667C13.0334 21.2112 12.9668 21.6849 13 22.1568V26.0268" stroke="white" stroke-width="2" stroke-linecap="round" stroke-linejoin="round"/>
</svg>
