<svg width="32" height="32" viewBox="0 0 32 32" fill="none" xmlns="http://www.w3.org/2000/svg">
<path d="M19.7364 12.3159C21.4114 12.3159 23.0179 12.9813 24.2023 14.1658C25.3867 15.3502 26.0522 16.9566 26.0522 18.6317V26H21.8417V18.6317C21.8417 18.0733 21.6199 17.5378 21.225 17.143C20.8302 16.7482 20.2948 16.5264 19.7364 16.5264C19.1781 16.5264 18.6426 16.7482 18.2478 17.143C17.853 17.5378 17.6312 18.0733 17.6312 18.6317V26H13.4207V18.6317C13.4207 16.9566 14.0861 15.3502 15.2705 14.1658C16.4549 12.9813 18.0614 12.3159 19.7364 12.3159Z" stroke="white" stroke-width="1.57894" stroke-linecap="round" stroke-linejoin="round"/>
<path d="M9.2105 13.3687H5V26.0002H9.2105V13.3687Z" stroke="white" stroke-width="1.57894" stroke-linecap="round" stroke-linejoin="round"/>
<path d="M7.10525 10.2105C8.26795 10.2105 9.2105 9.26795 9.2105 8.10525C9.2105 6.94255 8.26795 6 7.10525 6C5.94255 6 5 6.94255 5 8.10525C5 9.26795 5.94255 10.2105 7.10525 10.2105Z" stroke="white" stroke-width="1.57894" stroke-linecap="round" stroke-linejoin="round"/>
</svg>
