<svg width="127" height="113" viewBox="0 0 127 113" fill="none" xmlns="http://www.w3.org/2000/svg">
<g clip-path="url(#clip0_206_522)">
<path opacity="0.3" fill-rule="evenodd" clip-rule="evenodd" d="M0 0L6.92995 6.92995L56.0057 56.0057L63.0768 63.0768L70.1479 56.0057L119.224 6.92995L126.154 0H112.011L63.0768 48.9346L14.1421 0H0Z" fill="#262931"/>
<path opacity="0.6" fill-rule="evenodd" clip-rule="evenodd" d="M0 25L6.92995 31.93L56.0057 81.0057L63.0768 88.0768L70.1479 81.0057L119.224 31.93L126.154 25H112.011L63.0768 73.9347L14.1421 25H0Z" fill="#262931"/>
<path fill-rule="evenodd" clip-rule="evenodd" d="M0 50L6.92995 56.93L56.0057 106.006L63.0768 113.077L70.1479 106.006L119.224 56.93L126.154 50H112.011L63.0768 98.9347L14.1421 50H0Z" fill="#262931"/>
</g>
<defs>
<clipPath id="clip0_206_522">
<rect width="127" height="113" fill="white"/>
</clipPath>
</defs>
</svg>
