<svg width="195" height="195" viewBox="0 0 195 195" fill="none" xmlns="http://www.w3.org/2000/svg">
<mask id="mask0_102_707" style="mask-type:alpha" maskUnits="userSpaceOnUse" x="32" y="65" width="131" height="65">
<path d="M32.5 65L162.5 65L97.5 130L32.5 65Z" fill="#A8AAAD"/>
</mask>
<g mask="url(#mask0_102_707)">
<path d="M339.573 -172.271L-143.857 -172.271L97.8583 69.4442L339.573 -172.271Z" stroke="#A8AAAD" stroke-width="2"/>
<path opacity="0.9" d="M339.573 -166.271L-143.857 -166.271L97.8583 75.4442L339.573 -166.271Z" stroke="#A8AAAD" stroke-width="2"/>
<path opacity="0.8" d="M339.573 -160.271L-143.857 -160.271L97.8583 81.4442L339.573 -160.271Z" stroke="#A8AAAD" stroke-width="2"/>
<path opacity="0.7" d="M339.573 -154.271L-143.857 -154.271L97.8583 87.4442L339.573 -154.271Z" stroke="#A8AAAD" stroke-width="2"/>
<path opacity="0.6" d="M339.573 -148.271L-143.857 -148.271L97.8583 93.4442L339.573 -148.271Z" stroke="#A8AAAD" stroke-width="2"/>
<path opacity="0.5" d="M339.573 -142.271L-143.857 -142.271L97.8583 99.4442L339.573 -142.271Z" stroke="#A8AAAD" stroke-width="2"/>
<path opacity="0.4" d="M339.573 -136.271L-143.857 -136.271L97.8583 105.444L339.573 -136.271Z" stroke="#A8AAAD" stroke-width="2"/>
<path opacity="0.3" d="M339.573 -130.271L-143.857 -130.271L97.8583 111.444L339.573 -130.271Z" stroke="#A8AAAD" stroke-width="2"/>
<path opacity="0.2" d="M339.573 -124.271L-143.857 -124.271L97.8583 117.444L339.573 -124.271Z" stroke="#A8AAAD" stroke-width="2"/>
<path opacity="0.1" d="M339.573 -118.271L-143.857 -118.271L97.8583 123.444L339.573 -118.271Z" stroke="#A8AAAD" stroke-width="2"/>
</g>
</svg>
